<?xml version="1.0" standalone="no"?>
<!DOCTYPE svg PUBLIC "-//W3C//DTD SVG 20010904//EN"
 "http://www.w3.org/TR/2001/REC-SVG-20010904/DTD/svg10.dtd">
<svg version="1.0" xmlns="http://www.w3.org/2000/svg"
 width="300.000000pt" height="168.000000pt" viewBox="0 0 300.000000 168.000000"
 preserveAspectRatio="xMidYMid meet">

<g transform="translate(0.000000,168.000000) scale(0.100000,-0.100000)"
fill="#000000" stroke="none">
<path d="M0 840 l0 -840 1500 0 1500 0 0 840 0 840 -1500 0 -1500 0 0 -840z
m1580 528 c26 -14 53 -37 64 -57 22 -38 25 -105 7 -140 -12 -22 -14 -22 -29
-7 -14 14 -14 18 -4 25 8 5 12 21 10 37 -2 23 -9 30 -30 32 -37 4 -56 -30 -34
-63 18 -27 5 -43 -14 -20 -19 23 -49 18 -62 -10 -9 -20 -8 -28 6 -44 15 -17
15 -19 0 -32 -14 -11 -21 -10 -52 6 -53 29 -82 77 -82 138 0 64 27 109 83 136
54 27 82 26 137 -1z m340 -270 c0 -23 -33 0 -106 73 -52 52 -80 87 -77 96 4
10 32 -12 94 -73 49 -49 89 -92 89 -96z m-105 62 l79 -79 -67 -32 c-37 -17
-67 -34 -67 -37 0 -3 10 -16 22 -29 l22 -24 -134 -134 -135 -135 -105 105
-105 105 135 135 134 135 33 -32 32 -31 33 67 c18 36 35 66 38 66 3 0 41 -36
85 -80z m-453 -16 c50 -26 90 -102 64 -124 -13 -10 -19 -9 -31 4 -9 9 -22 16
-29 16 -34 0 -50 -61 -20 -78 12 -6 13 -11 5 -16 -6 -4 -18 0 -27 8 -30 31
-69 8 -62 -36 2 -18 11 -24 37 -28 59 -9 50 -30 -12 -30 -64 0 -110 26 -138
80 -72 135 74 275 213 204z m-370 -621 l21 -48 20 48 c14 31 27 47 39 47 16 0
18 -11 18 -116 0 -105 -2 -115 -17 -112 -15 3 -19 17 -23 73 -4 55 -7 64 -13
43 -10 -38 -35 -35 -52 5 -14 31 -14 30 -15 -45 0 -63 -3 -78 -15 -78 -12 0
-15 19 -15 115 0 97 2 115 15 115 9 0 25 -21 37 -47z m229 31 c18 -22 24 -124
9 -168 -12 -38 -41 -53 -79 -41 -39 12 -53 145 -21 205 13 25 71 28 91 4z m73
-1 c3 -10 10 -45 15 -77 6 -33 12 -61 14 -63 2 -1 9 33 16 77 11 68 16 80 33
80 14 0 18 -5 14 -17 -2 -10 -14 -62 -26 -116 -18 -79 -25 -97 -38 -95 -12 2
-23 30 -39 103 -12 55 -23 106 -23 113 0 19 28 14 34 -5z m146 -98 c0 -96 -3
-115 -15 -115 -12 0 -15 19 -15 115 0 96 3 115 15 115 12 0 15 -19 15 -115z
m140 100 c0 -10 -11 -15 -35 -15 -32 0 -35 -2 -35 -30 0 -27 3 -30 30 -30 20
0 30 -5 30 -15 0 -10 -10 -15 -30 -15 -28 0 -30 -2 -30 -40 0 -39 1 -40 35
-40 24 0 35 -5 35 -15 0 -11 -12 -15 -50 -15 l-50 0 0 115 0 115 50 0 c38 0
50 -4 50 -15z m118 -33 c3 -34 7 -42 23 -42 16 0 19 7 19 45 0 33 4 45 15 45
12 0 15 -19 15 -115 0 -96 -3 -115 -15 -115 -12 0 -15 13 -15 55 0 48 -3 55
-19 55 -17 0 -20 -8 -23 -52 -2 -41 -7 -54 -20 -56 -16 -3 -18 7 -18 113 0
106 2 116 18 113 12 -2 18 -15 20 -46z m142 -39 c0 -94 8 -120 34 -110 13 5
16 24 16 102 0 87 2 96 18 93 15 -3 17 -16 17 -99 0 -107 -10 -129 -56 -129
-50 0 -59 21 -59 131 0 81 3 99 15 99 12 0 15 -16 15 -87z m211 66 c6 -12 9
-37 6 -55 -3 -19 -1 -36 4 -39 5 -4 9 -24 9 -45 0 -52 -21 -72 -74 -68 l-41 3
-3 113 -3 112 45 0 c36 0 48 -4 57 -21z"/>
<path d="M1525 1337 c-13 -10 -16 -21 -11 -41 6 -24 11 -27 39 -24 25 2 33 8
35 27 3 15 -3 30 -14 38 -22 16 -26 16 -49 0z"/>
<path d="M1422 1318 c-25 -25 -7 -68 29 -68 25 0 42 26 35 55 -7 27 -42 35
-64 13z"/>
<path d="M1407 1223 c-12 -12 -7 -50 8 -63 32 -27 82 23 55 55 -13 15 -51 20
-63 8z"/>
<path d="M1495 1000 l-100 -100 70 -70 70 -70 100 100 100 100 -70 70 -70 70
-100 -100z m169 21 l58 -59 -92 -92 -92 -93 -61 61 -62 62 90 90 c49 49 92 90
95 90 3 0 32 -26 64 -59z"/>
<path d="M1290 1099 c-9 -16 -8 -25 6 -40 22 -25 39 -24 58 3 11 15 12 26 5
40 -13 25 -55 23 -69 -3z"/>
<path d="M1190 1090 c-15 -28 4 -60 35 -60 14 0 29 8 35 20 15 28 -4 60 -35
60 -14 0 -29 -8 -35 -20z"/>
<path d="M1180 995 c-26 -32 13 -81 48 -59 34 22 22 74 -18 74 -10 0 -23 -7
-30 -15z"/>
<path d="M1156 525 c-13 -34 -6 -132 9 -145 26 -22 36 2 33 81 -2 59 -6 74
-19 77 -9 2 -19 -4 -23 -13z"/>
<path d="M1990 510 c0 -20 5 -30 15 -30 10 0 15 10 15 30 0 20 -5 30 -15 30
-10 0 -15 -10 -15 -30z"/>
<path d="M1990 410 c0 -34 3 -40 20 -40 25 0 34 21 26 55 -4 16 -13 25 -26 25
-17 0 -20 -7 -20 -40z"/>
</g>
</svg>
